<svg width="18" height="14" viewBox="0 0 18 14" fill="none" xmlns="http://www.w3.org/2000/svg">
<g id="ico">
<g id="icon">
<g id="icon_2">
<path id="Subtract" fill-rule="evenodd" clip-rule="evenodd" d="M10.4745 0.593119C10.7175 0.532296 10.9718 0.5 11.2336 0.5C12.9542 0.5 14.349 1.89481 14.349 3.61539C14.349 5.33597 12.9542 6.73077 11.2336 6.73077C10.8293 6.73077 10.4431 6.65378 10.0886 6.51365C11.0522 5.81242 11.6786 4.67578 11.6786 3.39286C11.6786 2.29044 11.2161 1.29605 10.4745 0.593119ZM11.5 7.42309H11.214C12.6454 8.25921 13.6071 9.81193 13.6071 11.5893V13.9464C13.6071 13.9644 13.6068 13.9822 13.6062 14L15 14C15.8284 14 16.5 13.3284 16.5 12.5V12.4231C16.5 9.66167 14.2614 7.42309 11.5 7.42309Z" fill="#4A90E2"/>
</g>
<g id="Group 77">
<path id="Rectangle 2488" d="M7.10987 7.4231H7.64285C10.4043 7.4231 12.6429 9.66167 12.6429 12.4231V12.5C12.6429 13.3284 11.9713 14 11.1429 14H7.37636H3.60987C2.78145 14 2.10988 13.3284 2.10988 12.5V12.4231C2.10988 9.66167 4.34845 7.4231 7.10987 7.4231Z" fill="#79B7FF"/>
<circle id="Ellipse 640" cx="3.11539" cy="3.11539" r="3.11539" transform="matrix(-1 0 0 1 10.4918 0.5)" fill="#79B7FF"/>
</g>
</g>
</g>
</svg>
